<?xml version="1.0" encoding="utf-8"?>
<!-- Generator: Adobe Illustrator 26.1.0, SVG Export Plug-In . SVG Version: 6.00 Build 0)  -->
<svg version="1.1" id="Layer_1" xmlns="http://www.w3.org/2000/svg" xmlns:xlink="http://www.w3.org/1999/xlink" x="0px" y="0px"
	 viewBox="0 0 1920 620.3" style="enable-background:new 0 0 1920 620.3;" xml:space="preserve">
<style type="text/css">
	.st0{fill:#FFFFFF;}
</style>
<g>
	<g>
		<path class="st0" d="M1351.4,379.9v142.4h-43.6V384.8c0-38.6-14.4-71.2-55.3-71.2c-28.1,0-50.4,19.8-58.4,43.6
			c-2.5,5.9-2.9,12.4-2.9,20.7v144.3h-43.6V171.3h43.6v149.3h0.9c6.9-12.4,17.8-23.2,31.2-30.6c12.8-7.4,28.1-12.4,44.5-12.4
			C1300.1,277.6,1351.4,297.4,1351.4,379.9z"/>
		<polygon class="st0" points="787.3,189.1 830.9,189.1 830.9,522.3 787.3,522.3 787.3,366.1 626.1,366.1 626.1,522.3 583.2,522.3 
			583.2,189.1 626.1,189.1 626.1,328.6 787.3,328.6 		"/>
		<path class="st0" d="M1090.4,431.3c0,51.4-38,95.9-116.7,95.9c-32.1,0-67.2-9.4-85-21.3l10.8-36.1c19.3,11.9,47.4,21.8,77.1,21.8
			c44,0,69.7-23.2,69.7-56.9c0-31.2-17.8-49-62.7-66.3c-54.4-19.3-88.1-47.4-88.1-94.4c0-51.9,43-90.5,107.8-90.5
			c34.1,0,58.9,7.9,73.7,16.4l-11.9,35.1c-10.8-5.9-33.1-15.8-63.3-15.8c-45.4,0-62.7,27.2-62.7,49.9c0,31.2,20.2,46.5,66.3,64.3
			C1061.7,355.2,1090.4,382.4,1090.4,431.3z"/>
		<path class="st0" d="M1523.5,277.6c-66.3,0-118.7,47-118.7,127c0,75.7,49.9,123.1,114.7,123.1c57.8,0,119.1-38.6,119.1-127
			C1638.8,327.5,1592.3,277.6,1523.5,277.6z M1521.5,495.1c-42.5,0-72.6-39.6-72.6-91.9c0-45.4,22.2-93,73.7-93s71.7,51.4,71.7,91.9
			C1594.3,456,1563.1,495.1,1521.5,495.1z"/>
		<path class="st0" d="M1818.6,277.6c-39.1,0-67.2,17.3-85,46.5h-0.9l-2-41.1h-39.1c0.9,22.7,2,47.4,2,78.2v259.1h43V490.2h0.9
			c14.4,23.8,42,37.6,73.7,37.6c56.4,0,108.8-42.5,108.8-128.5C1920,326.6,1876.6,277.6,1818.6,277.6z M1803.8,493.6
			c-31.2,0-57.3-20.7-65.2-51c-0.9-5.4-2-11.4-2-17.8v-41.1c0-5.9,1.5-12.4,2.9-17.8c8.4-32.6,36.1-53.9,65.8-53.9
			c46,0,71.2,41.1,71.2,89C1876.6,456,1849.8,493.6,1803.8,493.6z"/>
	</g>
	<path class="st0" d="M360.7,131.8C360.7,53.4,310.9,0,237.3,0c-71,0-127.1,50.4-127.1,136.1c0,1.3,0,2.6,0,3.9H0L19.1,523
		c0.7,15.3,13.7,27.5,28.7,27.5h375.4c15.1,0,28-12.2,28.7-27.5l19-383.1H360.6C360.7,137.3,360.7,134.6,360.7,131.8z M236.3,34.8
		c55.1,0,76.8,55.1,76.8,98.5c0,2.2,0,4.4-0.1,6.5H157.4c-0.1-1.8-0.1-3.6-0.1-5.4C157.3,85.7,181.2,34.8,236.3,34.8z M359.5,522.8
		H316V366.5H154.8v156.2h-43V189.5h43v139.4H316V189.5h43.6V522.8z"/>
</g>
</svg>
